<svg width="761.512548828125px" height="121.60000610351562px" xmlns="http://www.w3.org/2000/svg" viewBox="-130.7562744140625 14.199996948242188 761.512548828125 121.60000610351562" style="background: rgba(0, 0, 0, 0);" preserveAspectRatio="xMidYMid"><defs><filter id="editing-jagged" x="-100%" y="-100%" width="300%" height="300%"><feTurbulence result="turb" baseFrequency="0.1" numOctaves="1" seed="1"></feTurbulence><feDisplacementMap in="SourceGraphic" in2="turb" scale="10"></feDisplacementMap></filter></defs><g filter="url(#editing-jagged)"><g transform="translate(-22.039128184318542, 104.11999702453613)"><path d="M26.05-29.57L26.05-29.57L26.05-29.57Q27.01-31.49 27.01-33.28L27.01-33.28L27.01-33.28Q27.01-35.07 26.82-36.06L26.82-36.06L26.82-36.06Q26.62-37.06 26.18-37.82L26.18-37.82L26.18-37.82Q25.22-39.49 23.30-39.49L23.30-39.49L23.30-39.49Q20.93-39.49 19.01-37.76L19.01-37.76L19.01-37.76Q16.96-35.97 16.96-33.15L16.96-33.15L16.96-33.15Q16.96-31.36 18.21-29.98L18.21-29.98L18.21-29.98Q19.46-28.61 21.38-27.33L21.38-27.33L21.38-27.33Q23.30-26.05 25.47-24.77L25.47-24.77L25.47-24.77Q27.65-23.49 29.57-21.95L29.57-21.95L29.57-21.95Q33.98-18.43 33.98-13.70L33.98-13.70L33.98-13.70Q33.98-10.50 32.29-7.78L32.29-7.78L32.29-7.78Q30.59-5.06 27.78-3.07L27.78-3.07L27.78-3.07Q21.63 1.28 13.50 1.28L13.50 1.28L13.50 1.28Q6.91 1.28 3.52-0.86L3.52-0.86L3.52-0.86Q0.13-3.01 0.13-6.27L0.13-6.27L0.13-6.27Q0.13-12.10 4.67-13.57L4.67-13.57L4.67-13.57Q5.95-14.02 7.90-14.02L7.90-14.02L7.90-14.02Q9.86-14.02 12.10-13.18L12.10-13.18L12.10-13.18Q11.07-10.56 11.07-8.19L11.07-8.19L11.07-8.19Q11.07-3.07 14.72-3.07L14.72-3.07L14.72-3.07Q17.09-3.07 19.04-4.80L19.04-4.80L19.04-4.80Q20.99-6.53 20.99-8.48L20.99-8.48L20.99-8.48Q20.99-10.43 19.74-11.84L19.74-11.84L19.74-11.84Q18.50-13.25 16.64-14.37L16.64-14.37L16.64-14.37Q14.78-15.49 12.64-16.58L12.64-16.58L12.64-16.58Q10.50-17.66 8.64-19.20L8.64-19.20L8.64-19.20Q4.29-22.72 4.29-28.35L4.29-28.35L4.29-28.35Q4.29-32 6.08-34.85L6.08-34.85L6.08-34.85Q7.87-37.70 10.75-39.62L10.75-39.62L10.75-39.62Q16.51-43.52 23.58-43.52L23.58-43.52L23.58-43.52Q30.66-43.52 34.08-41.41L34.08-41.41L34.08-41.41Q37.50-39.30 37.50-35.71L37.50-35.71L37.50-35.71Q37.50-32.58 35.07-30.59L35.07-30.59L35.07-30.59Q32.96-28.93 30.40-28.93L30.40-28.93L30.40-28.93Q27.84-28.93 26.05-29.57ZM52.80 1.28L52.80 1.28L52.80 1.28Q38.72 1.28 38.72-11.97L38.72-11.97L38.72-11.97Q38.72-21.38 43.90-27.46L43.90-27.46L43.90-27.46Q49.41-33.92 58.94-33.92L58.94-33.92L58.94-33.92Q65.86-33.92 69.38-30.72L69.38-30.72L69.38-30.72Q72.90-27.52 72.90-20.80L72.90-20.80L72.90-20.80Q72.90-10.56 67.39-4.61L67.39-4.61L67.39-4.61Q62.02 1.28 52.80 1.28ZM54.46-26.56L54.46-26.56L54.46-26.56Q53.70-24.83 53.09-22.24L53.09-22.24L53.09-22.24Q52.48-19.65 51.71-15.55L51.71-15.55L51.71-15.55Q50.94-11.46 50.94-6.40L50.94-6.40L50.94-6.40Q50.94-4.74 51.49-3.65L51.49-3.65L51.49-3.65Q52.03-2.56 53.50-2.56L53.50-2.56L53.50-2.56Q54.98-2.56 55.90-3.26L55.90-3.26L55.90-3.26Q56.83-3.97 57.54-5.63L57.54-5.63L57.54-5.63Q58.82-8.58 59.84-14.05L59.84-14.05L59.84-14.05Q60.86-19.52 60.96-21.89L60.96-21.89L60.96-21.89Q61.06-24.26 61.06-26.02L61.06-26.02L61.06-26.02Q61.06-27.78 60.54-28.93L60.54-28.93L60.54-28.93Q60.03-30.08 58.59-30.08L58.59-30.08L58.59-30.08Q57.15-30.08 56.19-29.18L56.19-29.18L56.19-29.18Q55.23-28.29 54.46-26.56ZM108.10-26.62L108.10-26.62L108.10-26.62Q108.10-23.94 105.86-22.27L105.86-22.27L105.86-22.27Q103.62-20.61 99.97-20.61L99.97-20.61L99.97-20.61Q98.43-20.61 97.54-21.06L97.54-21.06L97.54-21.06Q98.24-22.72 98.46-24.80L98.46-24.80L98.46-24.80Q98.69-26.88 98.69-27.46L98.69-27.46L98.69-27.46Q98.69-30.14 96.83-30.14L96.83-30.14L96.83-30.14Q95.55-30.14 94.11-28.54L94.11-28.54L94.11-28.54Q92.67-26.94 91.46-24.45L91.46-24.45L91.46-24.45Q88.77-18.69 88.77-12.86L88.77-12.86L88.77-12.86Q88.77-9.66 89.98-8.22L89.98-8.22L89.98-8.22Q91.20-6.78 93.89-6.78L93.89-6.78L93.89-6.78Q97.60-6.78 100.54-9.86L100.54-9.86L100.54-9.86Q101.38-10.82 101.82-11.90L101.82-11.90L101.82-11.90Q104.26-10.62 104.26-7.10L104.26-7.10L104.26-7.10Q104.26-3.52 100.29-1.15L100.29-1.15L100.29-1.15Q96.19 1.28 89.66 1.28L89.66 1.28L89.66 1.28Q76.67 1.28 76.67-12.48L76.67-12.48L76.67-12.48Q76.67-22.53 82.37-28.29L82.37-28.29L82.37-28.29Q87.87-33.92 97.98-33.92L97.98-33.92L97.98-33.92Q108.10-33.92 108.10-26.62ZM125.18-3.52L125.18-3.52L125.18-3.52Q123.20 1.28 116.86 1.28L116.86 1.28L116.86 1.28Q113.60 1.28 111.55-0.96L111.55-0.96L111.55-0.96Q109.82-2.94 109.82-4.93L109.82-4.93L109.82-4.93Q109.82-10.11 112.19-20.22L112.19-20.22L114.56-32.64L127.55-33.92L123.65-13.70L123.65-13.70Q122.56-8.96 122.56-7.30L122.56-7.30L122.56-7.30Q122.56-3.65 125.18-3.52ZM115.71-41.54L115.71-41.54L115.71-41.54Q115.71-44.03 117.79-45.38L117.79-45.38L117.79-45.38Q119.87-46.72 122.88-46.72L122.88-46.72L122.88-46.72Q125.89-46.72 127.71-45.38L127.71-45.38L127.71-45.38Q129.54-44.03 129.54-41.54L129.54-41.54L129.54-41.54Q129.54-39.04 127.52-37.76L127.52-37.76L127.52-37.76Q125.50-36.48 122.50-36.48L122.50-36.48L122.50-36.48Q119.49-36.48 117.60-37.76L117.60-37.76L117.60-37.76Q115.71-39.04 115.71-41.54ZM133.41-1.92L133.41-1.92L133.41-1.92Q131.90-3.58 131.23-6.21L131.23-6.21L131.23-6.21Q130.56-8.83 130.56-13.12L130.56-13.12L130.56-13.12Q130.56-17.41 132.03-21.31L132.03-21.31L132.03-21.31Q133.50-25.22 136.19-28.03L136.19-28.03L136.19-28.03Q141.70-33.92 150.78-33.92L150.78-33.92L150.78-33.92Q154.05-33.92 156.42-32.83L156.42-32.83L167.36-33.92L162.62-8.96L162.62-8.96Q162.43-8.19 162.43-6.78L162.43-6.78L162.43-6.78Q162.43-5.38 163.30-4.48L163.30-4.48L163.30-4.48Q164.16-3.58 165.44-3.46L165.44-3.46L165.44-3.46Q164.80-1.28 162.46 0L162.46 0L162.46 0Q160.13 1.28 157.50 1.28L157.50 1.28L157.50 1.28Q154.88 1.28 153.12 0.29L153.12 0.29L153.12 0.29Q151.36-0.70 150.85-2.37L150.85-2.37L150.85-2.37Q149.82-0.77 147.65 0.26L147.65 0.26L147.65 0.26Q145.47 1.28 142.56 1.28L142.56 1.28L142.56 1.28Q139.65 1.28 137.28 0.51L137.28 0.51L137.28 0.51Q134.91-0.26 133.41-1.92ZM146.91-27.90L146.91-27.90L146.91-27.90Q146.18-26.75 145.54-24.80L145.54-24.80L145.54-24.80Q144.90-22.85 143.84-17.63L143.84-17.63L143.84-17.63Q142.78-12.42 142.78-8.70L142.78-8.70L142.78-8.70Q142.78-4.99 143.36-3.90L143.36-3.90L143.36-3.90Q143.94-2.82 144.96-2.82L144.96-2.82L144.96-2.82Q147.01-2.82 148.51-4.77L148.51-4.77L148.51-4.77Q150.02-6.72 150.59-10.18L150.59-10.18L153.98-28.93L153.98-28.93Q152.64-30.08 151.07-30.08L151.07-30.08L151.07-30.08Q149.50-30.08 148.58-29.57L148.58-29.57L148.58-29.57Q147.65-29.06 146.91-27.90ZM186.11-3.52L186.11-3.52L186.11-3.52Q184.13 1.28 177.79 1.28L177.79 1.28L177.79 1.28Q174.59 1.28 172.54-0.96L172.54-0.96L172.54-0.96Q170.88-2.82 170.88-4.93L170.88-4.93L170.88-4.93Q170.88-9.73 173.12-20.22L173.12-20.22L177.79-44.80L190.78-46.08L184.58-13.70L184.58-13.70Q183.49-8.96 183.49-7.30L183.49-7.30L183.49-7.30Q183.49-3.65 186.11-3.52ZM206.91-3.52L206.91-3.52L206.91-3.52Q204.93 1.28 198.59 1.28L198.59 1.28L198.59 1.28Q195.33 1.28 193.28-0.96L193.28-0.96L193.28-0.96Q191.55-2.94 191.55-4.93L191.55-4.93L191.55-4.93Q191.55-10.11 193.92-20.22L193.92-20.22L196.29-32.64L209.28-33.92L205.38-13.70L205.38-13.70Q204.29-8.96 204.29-7.30L204.29-7.30L204.29-7.30Q204.29-3.65 206.91-3.52ZM197.44-41.54L197.44-41.54L197.44-41.54Q197.44-44.03 199.52-45.38L199.52-45.38L199.52-45.38Q201.60-46.72 204.61-46.72L204.61-46.72L204.61-46.72Q207.62-46.72 209.44-45.38L209.44-45.38L209.44-45.38Q211.26-44.03 211.26-41.54L211.26-41.54L211.26-41.54Q211.26-39.04 209.25-37.76L209.25-37.76L209.25-37.76Q207.23-36.48 204.22-36.48L204.22-36.48L204.22-36.48Q201.22-36.48 199.33-37.76L199.33-37.76L199.33-37.76Q197.44-39.04 197.44-41.54ZM224.67 0.64L224.67 0.64L224.67 0.64Q221.63 0 220.06-0.29L220.06-0.29L220.06-0.29Q218.50-0.58 216.67-0.58L216.67-0.58L216.67-0.58Q214.85-0.58 213.06 0.06L213.06 0.06L213.06 0.06Q212.10-0.51 211.49-1.66L211.49-1.66L211.49-1.66Q210.88-2.82 210.88-4.61L210.88-4.61L210.88-4.61Q210.88-8.38 214.72-11.26L214.72-11.26L230.98-22.98L230.98-22.98Q226.43-24.26 222.30-24.26L222.30-24.26L222.30-24.26Q218.18-24.26 216.70-21.44L216.70-21.44L216.70-21.44Q214.53-24 214.53-28.03L214.53-28.03L214.53-28.03Q214.53-30.72 216.48-32.48L216.48-32.48L216.48-32.48Q218.43-34.24 222.53-34.24L222.53-34.24L222.53-34.24Q224.83-34.24 226.91-33.95L226.91-33.95L226.91-33.95Q228.99-33.66 230.85-33.41L230.85-33.41L234.30-32.90L234.30-32.90Q235.97-32.64 237.66-32.64L237.66-32.64L237.66-32.64Q239.36-32.64 240.64-33.34L240.64-33.34L240.64-33.34Q242.30-31.81 242.30-29.70L242.30-29.70L242.30-29.70Q242.30-26.37 238.21-22.91L238.21-22.91L222.02-10.82L222.02-10.82Q227.01-9.34 229.57-9.34L229.57-9.34L229.57-9.34Q234.94-9.34 237.25-11.90L237.25-11.90L237.25-11.90Q239.04-9.86 239.04-6.30L239.04-6.30L239.04-6.30Q239.04-2.75 236.74-0.74L236.74-0.74L236.74-0.74Q234.43 1.28 230.27 1.28L230.27 1.28L230.27 1.28Q227.71 1.28 224.67 0.64ZM270.53-10.82L270.53-10.82L270.53-10.82Q272.13-9.73 272.13-7.33L272.13-7.33L272.13-7.33Q272.13-4.93 270.91-3.39L270.91-3.39L270.91-3.39Q269.70-1.86 267.71-0.83L267.71-0.83L267.71-0.83Q263.62 1.28 259.20 1.28L259.20 1.28L259.20 1.28Q254.78 1.28 252.19 0.32L252.19 0.32L252.19 0.32Q249.60-0.64 247.87-2.43L247.87-2.43L247.87-2.43Q244.48-5.82 244.48-12.03L244.48-12.03L244.48-12.03Q244.48-21.70 249.73-27.58L249.73-27.58L249.73-27.58Q255.36-33.92 265.15-33.92L265.15-33.92L265.15-33.92Q271.23-33.92 274.24-31.36L274.24-31.36L274.24-31.36Q276.48-29.44 276.48-26.30L276.48-26.30L276.48-26.30Q276.48-15.04 257.02-15.04L257.02-15.04L257.02-15.04Q256.77-13.38 256.77-11.97L256.77-11.97L256.77-11.97Q256.77-9.02 258.08-7.90L258.08-7.90L258.08-7.90Q259.39-6.78 261.82-6.78L261.82-6.78L261.82-6.78Q264.26-6.78 266.85-7.90L266.85-7.90L266.85-7.90Q269.44-9.02 270.53-10.82ZM257.47-17.79L257.47-17.79L257.47-17.79Q262.02-17.79 264.64-20.61L264.64-20.61L264.64-20.61Q267.26-23.30 267.26-27.58L267.26-27.58L267.26-27.58Q267.26-29.06 266.72-29.86L266.72-29.86L266.72-29.86Q266.18-30.66 265.09-30.66L265.09-30.66L265.09-30.66Q264-30.66 263.07-30.24L263.07-30.24L263.07-30.24Q262.14-29.82 261.18-28.42L261.18-28.42L261.18-28.42Q258.82-25.22 257.47-17.79ZM316.86-42.69L316.86-42.69L316.86-42.69Q332.54-42.69 332.54-31.62L332.54-31.62L332.54-31.62Q332.54-25.54 328.64-21.89L328.64-21.89L328.64-21.89Q324.80-18.24 318.08-18.24L318.08-18.24L318.08-18.24Q314.94-18.24 312.51-20.03L312.51-20.03L312.51-20.03Q311.36-20.80 310.59-21.82L310.59-21.82L310.59-21.82Q315.26-21.82 317.73-24.67L317.73-24.67L317.73-24.67Q320.19-27.52 320.19-33.09L320.19-33.09L320.19-33.09Q320.19-38.66 314.69-38.66L314.69-38.66L313.15-38.66L313.15-38.66Q312.77-38.66 312.45-38.59L312.45-38.59L305.09 0L291.20 0L299.07-41.92L299.07-41.92Q305.92-42.56 309.89-42.62L309.89-42.62L309.89-42.62Q313.86-42.69 316.86-42.69ZM352.90-17.98L352.90-17.98L352.90-17.98Q355.20-22.08 355.20-26.24L355.20-26.24L355.20-26.24Q355.20-28.99 353.22-28.99L353.22-28.99L353.22-28.99Q351.68-28.99 350.08-26.37L350.08-26.37L350.08-26.37Q348.42-23.74 347.90-20.35L347.90-20.35L344.58 0L331.33 1.28L337.86-32.64L348.42-33.92L347.26-27.46L347.26-27.46Q350.40-33.92 357.44-33.92L357.44-33.92L357.44-33.92Q361.15-33.92 363.17-32L363.17-32L363.17-32Q365.18-30.08 365.18-26.14L365.18-26.14L365.18-26.14Q365.18-22.21 362.59-19.71L362.59-19.71L362.59-19.71Q360-17.22 355.58-17.22L355.58-17.22L355.58-17.22Q353.66-17.22 352.90-17.98ZM380.16 1.28L380.16 1.28L380.16 1.28Q366.08 1.28 366.08-11.97L366.08-11.97L366.08-11.97Q366.08-21.38 371.26-27.46L371.26-27.46L371.26-27.46Q376.77-33.92 386.30-33.92L386.30-33.92L386.30-33.92Q393.22-33.92 396.74-30.72L396.74-30.72L396.74-30.72Q400.26-27.52 400.26-20.80L400.26-20.80L400.26-20.80Q400.26-10.56 394.75-4.61L394.75-4.61L394.75-4.61Q389.38 1.28 380.16 1.28ZM381.82-26.56L381.82-26.56L381.82-26.56Q381.06-24.83 380.45-22.24L380.45-22.24L380.45-22.24Q379.84-19.65 379.07-15.55L379.07-15.55L379.07-15.55Q378.30-11.46 378.30-6.40L378.30-6.40L378.30-6.40Q378.30-4.74 378.85-3.65L378.85-3.65L378.85-3.65Q379.39-2.56 380.86-2.56L380.86-2.56L380.86-2.56Q382.34-2.56 383.26-3.26L383.26-3.26L383.26-3.26Q384.19-3.97 384.90-5.63L384.90-5.63L384.90-5.63Q386.18-8.58 387.20-14.05L387.20-14.05L387.20-14.05Q388.22-19.52 388.32-21.89L388.32-21.89L388.32-21.89Q388.42-24.26 388.42-26.02L388.42-26.02L388.42-26.02Q388.42-27.78 387.90-28.93L387.90-28.93L387.90-28.93Q387.39-30.08 385.95-30.08L385.95-30.08L385.95-30.08Q384.51-30.08 383.55-29.18L383.55-29.18L383.55-29.18Q382.59-28.29 381.82-26.56ZM395.14 7.62L395.14 7.62L395.14 7.62Q398.46 7.36 400.90 3.20L400.90 3.20L400.90 3.20Q402.75 0 403.97-5.89L403.97-5.89L409.15-32.64L422.02-33.92L416.58-5.89L416.58-5.89Q414.46 4.80 411.20 8.32L411.20 8.32L411.20 8.32Q409.47 10.24 407.23 10.88L407.23 10.88L407.23 10.88Q404.99 11.52 402.43 11.52L402.43 11.52L402.43 11.52Q397.06 11.52 395.14 7.62ZM410.18-41.54L410.18-41.54L410.18-41.54Q410.18-44.03 412.26-45.38L412.26-45.38L412.26-45.38Q414.34-46.72 417.34-46.72L417.34-46.72L417.34-46.72Q420.35-46.72 422.18-45.38L422.18-45.38L422.18-45.38Q424-44.03 424-41.54L424-41.54L424-41.54Q424-39.04 421.98-37.76L421.98-37.76L421.98-37.76Q419.97-36.48 416.96-36.48L416.96-36.48L416.96-36.48Q413.95-36.48 412.06-37.76L412.06-37.76L412.06-37.76Q410.18-39.04 410.18-41.54ZM450.24-10.82L450.24-10.82L450.24-10.82Q451.84-9.73 451.84-7.33L451.84-7.33L451.84-7.33Q451.84-4.93 450.62-3.39L450.62-3.39L450.62-3.39Q449.41-1.86 447.42-0.83L447.42-0.83L447.42-0.83Q443.33 1.28 438.91 1.28L438.91 1.28L438.91 1.28Q434.50 1.28 431.90 0.32L431.90 0.32L431.90 0.32Q429.31-0.64 427.58-2.43L427.58-2.43L427.58-2.43Q424.19-5.82 424.19-12.03L424.19-12.03L424.19-12.03Q424.19-21.70 429.44-27.58L429.44-27.58L429.44-27.58Q435.07-33.92 444.86-33.92L444.86-33.92L444.86-33.92Q450.94-33.92 453.95-31.36L453.95-31.36L453.95-31.36Q456.19-29.44 456.19-26.30L456.19-26.30L456.19-26.30Q456.19-15.04 436.74-15.04L436.74-15.04L436.74-15.04Q436.48-13.38 436.48-11.97L436.48-11.97L436.48-11.97Q436.48-9.02 437.79-7.90L437.79-7.90L437.79-7.90Q439.10-6.78 441.54-6.78L441.54-6.78L441.54-6.78Q443.97-6.78 446.56-7.90L446.56-7.90L446.56-7.90Q449.15-9.02 450.24-10.82ZM437.18-17.79L437.18-17.79L437.18-17.79Q441.73-17.79 444.35-20.61L444.35-20.61L444.35-20.61Q446.98-23.30 446.98-27.58L446.98-27.58L446.98-27.58Q446.98-29.06 446.43-29.86L446.43-29.86L446.43-29.86Q445.89-30.66 444.80-30.66L444.80-30.66L444.80-30.66Q443.71-30.66 442.78-30.24L442.78-30.24L442.78-30.24Q441.86-29.82 440.90-28.42L440.90-28.42L440.90-28.42Q438.53-25.22 437.18-17.79ZM489.79-26.62L489.79-26.62L489.79-26.62Q489.79-23.94 487.55-22.27L487.55-22.27L487.55-22.27Q485.31-20.61 481.66-20.61L481.66-20.61L481.66-20.61Q480.13-20.61 479.23-21.06L479.23-21.06L479.23-21.06Q479.94-22.72 480.16-24.80L480.16-24.80L480.16-24.80Q480.38-26.88 480.38-27.46L480.38-27.46L480.38-27.46Q480.38-30.14 478.53-30.14L478.53-30.14L478.53-30.14Q477.25-30.14 475.81-28.54L475.81-28.54L475.81-28.54Q474.37-26.94 473.15-24.45L473.15-24.45L473.15-24.45Q470.46-18.69 470.46-12.86L470.46-12.86L470.46-12.86Q470.46-9.66 471.68-8.22L471.68-8.22L471.68-8.22Q472.90-6.78 475.58-6.78L475.58-6.78L475.58-6.78Q479.30-6.78 482.24-9.86L482.24-9.86L482.24-9.86Q483.07-10.82 483.52-11.90L483.52-11.90L483.52-11.90Q485.95-10.62 485.95-7.10L485.95-7.10L485.95-7.10Q485.95-3.52 481.98-1.15L481.98-1.15L481.98-1.15Q477.89 1.28 471.36 1.28L471.36 1.28L471.36 1.28Q458.37 1.28 458.37-12.48L458.37-12.48L458.37-12.48Q458.37-22.53 464.06-28.29L464.06-28.29L464.06-28.29Q469.57-33.92 479.68-33.92L479.68-33.92L479.68-33.92Q489.79-33.92 489.79-26.62ZM492.54-6.40L492.54-6.40L492.54-6.40Q492.54-8.13 493.44-12.48L493.44-12.48L496.83-29.76L493.06-29.76L493.31-31.68L493.31-31.68Q500.99-33.98 508.42-39.62L508.42-39.62L511.49-39.62L509.95-32.64L514.94-32.64L514.37-29.76L509.44-29.76L506.18-12.48L506.18-12.48Q505.34-8.51 505.34-7.17L505.34-7.17L505.34-7.17Q505.34-4.10 508.03-3.46L508.03-3.46L508.03-3.46Q507.39-1.28 505.09 0L505.09 0L505.09 0Q502.78 1.28 499.52 1.28L499.52 1.28L499.52 1.28Q496.26 1.28 494.40-0.77L494.40-0.77L494.40-0.77Q492.54-2.82 492.54-6.40ZM533.76-22.46L533.76-22.46L533.76-22.46Q534.66-24.83 534.66-26.88L534.66-26.88L534.66-26.88Q534.66-30.66 531.58-30.66L531.58-30.66L531.58-30.66Q529.98-30.66 528.67-29.22L528.67-29.22L528.67-29.22Q527.36-27.78 527.36-25.98L527.36-25.98L527.36-25.98Q527.36-24.70 528.38-23.68L528.38-23.68L528.38-23.68Q529.86-22.27 533.63-19.97L533.63-19.97L533.63-19.97Q537.41-17.66 538.85-15.78L538.85-15.78L538.85-15.78Q540.29-13.89 540.29-11.30L540.29-11.30L540.29-11.30Q540.29-8.70 539.04-6.34L539.04-6.34L539.04-6.34Q537.79-3.97 535.55-2.30L535.55-2.30L535.55-2.30Q530.75 1.28 523.07 1.28L523.07 1.28L523.07 1.28Q518.91 1.28 515.71-0.90L515.71-0.90L515.71-0.90Q512.51-3.01 512.51-5.50L512.51-5.50L512.51-5.50Q512.51-8 514.34-9.47L514.34-9.47L514.34-9.47Q516.16-10.94 518.85-10.94L518.85-10.94L518.85-10.94Q521.54-10.94 523.20-9.92L523.20-9.92L523.20-9.92Q522.37-7.81 522.37-6.40L522.37-6.40L522.37-6.40Q522.37-2.18 525.95-2.18L525.95-2.18L525.95-2.18Q527.49-2.18 528.51-3.14L528.51-3.14L528.51-3.14Q529.54-4.10 529.54-5.76L529.54-5.76L529.54-5.76Q529.54-9.02 524.03-12.48L524.03-12.48L524.03-12.48Q519.55-15.42 518.53-16.58L518.53-16.58L518.53-16.58Q516.80-18.62 516.80-21.18L516.80-21.18L516.80-21.18Q516.80-23.74 518.02-26.18L518.02-26.18L518.02-26.18Q519.23-28.61 521.47-30.34L521.47-30.34L521.47-30.34Q526.14-33.92 534.27-33.92L534.27-33.92L534.27-33.92Q538.43-33.92 540.90-32.26L540.90-32.26L540.90-32.26Q543.36-30.59 543.36-27.78L543.36-27.78L543.36-27.78Q543.36-24.96 541.66-23.36L541.66-23.36L541.66-23.36Q539.97-21.76 536.90-21.76L536.90-21.76L536.90-21.76Q534.78-21.76 533.76-22.46Z" fill="#444"></path></g></g><style>text {
  font-size: 64px;
  font-family: Arial Black;
  dominant-baseline: central;
  text-anchor: middle;
}</style></svg>